<svg xmlns="http://www.w3.org/2000/svg" xmlns:xlink="http://www.w3.org/1999/xlink" fill="none" version="1.1" width="20" height="20" viewBox="0 0 20 20"><g><g transform="matrix(0,1,-1,0,20,-20)"><path d="M36.928200000000004,12Q36.960899999999995,12.0567,36.9899,12.1154Q37.0189,12.1741,37.0439,12.2346Q37.069,12.2951,37.09,12.3571Q37.1111,12.4191,37.128,12.4824Q37.144999999999996,12.5456,37.1577,12.6098Q37.170500000000004,12.674,37.179,12.7389Q37.1876,12.8039,37.191900000000004,12.8692Q37.196200000000005,12.9345,37.196200000000005,13Q37.196200000000005,13.0655,37.191900000000004,13.1308Q37.1876,13.1961,37.179,13.2611Q37.170500000000004,13.326,37.1577,13.3902Q37.144999999999996,13.4544,37.128,13.5176Q37.1111,13.5809,37.09,13.6429Q37.069,13.7049,37.0439,13.7654Q37.0189,13.8259,36.9899,13.8846Q36.960899999999995,13.9433,36.928200000000004,14Q36.8955,14.0567,36.8591,14.1111Q36.8227,14.1656,36.7829,14.2175Q36.742999999999995,14.2695,36.699799999999996,14.3187Q36.6567,14.3679,36.6104,14.4142Q36.564099999999996,14.4605,36.5148,14.5037Q36.465599999999995,14.5469,36.4137,14.5867Q36.3617,14.6266,36.3073,14.6629Q36.2529,14.6993,36.196200000000005,14.7321Q36.1395,14.7648,36.0807,14.7937Q36.022,14.8227,35.9615,14.8478Q35.900999999999996,14.8728,35.839,14.8939Q35.777,14.9149,35.7138,14.9319Q35.6505,14.9488,35.5863,14.9616Q35.5221,14.9743,35.4572,14.9829Q35.3923,14.9914,35.327,14.9957Q35.2616,15,35.1962,15L24.80385,15Q24.73837,15,24.67304,14.9957Q24.60771,14.9914,24.5428,14.9829Q24.47788,14.9743,24.41367,14.9616Q24.34945,14.9488,24.28621,14.9319Q24.22297,14.9149,24.16097,14.8939Q24.09897,14.8728,24.03848,14.8478Q23.97799,14.8227,23.91927,14.7937Q23.86055,14.7648,23.80385,14.7321Q23.74715,14.6993,23.692709999999998,14.6629Q23.63827,14.6266,23.58633,14.5867Q23.53438,14.5469,23.48516,14.5037Q23.43593,14.4605,23.38963,14.4142Q23.34334,14.3679,23.30017,14.3187Q23.257,14.2695,23.21714,14.2175Q23.17728,14.1656,23.140909999999998,14.1111Q23.10453,14.0567,23.0718,14Q23.03906,13.9433,23.0101,13.8846Q22.98114,13.8259,22.95609,13.7654Q22.93103,13.7049,22.90999,13.6429Q22.888939999999998,13.5809,22.872,13.5176Q22.85505,13.4544,22.84228,13.3902Q22.8295,13.326,22.82096,13.2611Q22.81241,13.1961,22.80813,13.1308Q22.80385,13.0655,22.80385,13Q22.80385,12.9345,22.80813,12.8692Q22.81241,12.8039,22.82096,12.7389Q22.8295,12.674,22.84228,12.6098Q22.85505,12.5456,22.872,12.4824Q22.888939999999998,12.4191,22.90999,12.3571Q22.93103,12.2951,22.95609,12.2346Q22.98114,12.1741,23.0101,12.1154Q23.03906,12.0567,23.0718,12L28.26795,3Q28.30069,2.9433,28.33706,2.88886Q28.373440000000002,2.83442,28.41329,2.78248Q28.45315,2.73053,28.49632,2.68131Q28.53949,2.63208,28.58579,2.58579Q28.632080000000002,2.53949,28.68131,2.49632Q28.73053,2.45315,28.78248,2.41329Q28.83442,2.37344,28.88886,2.33706Q28.9433,2.30069,29,2.26795Q29.0567,2.23521,29.11542,2.20625Q29.17414,2.1773,29.23463,2.15224Q29.29512,2.12719,29.357120000000002,2.10614Q29.41912,2.08509,29.48236,2.06815Q29.5456,2.0512,29.60982,2.03843Q29.674039999999998,2.02566,29.738950000000003,2.01711Q29.80386,2.00856,29.86919,2.00428Q29.934530000000002,2,30,2Q30.0655,2,30.1308,2.00428Q30.1961,2.00856,30.2611,2.01711Q30.326,2.02566,30.3902,2.03843Q30.4544,2.0512,30.5176,2.06815Q30.5809,2.08509,30.642899999999997,2.10614Q30.704900000000002,2.12719,30.7654,2.15224Q30.8259,2.1773,30.8846,2.20625Q30.9433,2.23521,31,2.26795Q31.0567,2.30069,31.1111,2.33706Q31.165599999999998,2.37344,31.2175,2.41329Q31.2695,2.45315,31.3187,2.49632Q31.3679,2.53949,31.4142,2.58579Q31.4605,2.63208,31.503700000000002,2.68131Q31.5469,2.73053,31.5867,2.78248Q31.6266,2.83442,31.6629,2.88886Q31.6993,2.9433,31.732100000000003,3L36.928200000000004,12Z" fill="#FFFFFF" fill-opacity="1"/></g></g></svg>